# xmcd
#
# Track frame offsets: 
#        150
#        11900
#        26862
#        40710
#        53427
#        67665
#        79500
#        91627
#        106377
#        114742
#
# Disc length: 1698 seconds
#
# Revision: 0
# Processed by: cddbd v1.4PL0 Copyright (c) Steve Scherf et al.
# Submitted via: ExactAudioCopy v0.90b3
#
DISCID=6c06a00a
DTITLE=Mickey Gilley - Back To Basics
DYEAR=1900
DGENRE=Country
TTITLE0=Full Grown Fool
TTITLE1=Doo-Wah Days
TTITLE2=My Affection
TTITLE3=Swinging Doors
TTITLE4=Play Ruby, Play
TTITLE5=Window Up Above
TTITLE6=I'll Sail My Ship Alone
TTITLE7=Faded Love
TTITLE8=Great Balls Of Fire
TTITLE9=Diggy Liggy Lo'
EXTD=
EXTT0=
EXTT1=
EXTT2=
EXTT3=
EXTT4=
EXTT5=
EXTT6=
EXTT7=
EXTT8=
EXTT9=
PLAYORDER=
